<?xml version="1.0" encoding="UTF-8" standalone="no"?>
<!-- Created with Inkscape (http://www.inkscape.org/) -->

<svg
   width="2048"
   height="2048"
   viewBox="0 0 2048 2048"
   version="1.1"
   id="svg1"
   xml:space="preserve"
   inkscape:export-filename="spritesheet_image.png"
   inkscape:export-xdpi="96"
   inkscape:export-ydpi="96"
   sodipodi:docname="spritesheet.svg"
   inkscape:version="1.4 (86a8ad7, 2024-10-11)"
   xmlns:inkscape="http://www.inkscape.org/namespaces/inkscape"
   xmlns:sodipodi="http://sodipodi.sourceforge.net/DTD/sodipodi-0.dtd"
   xmlns="http://www.w3.org/2000/svg"
   xmlns:svg="http://www.w3.org/2000/svg"><sodipodi:namedview
     id="namedview1"
     pagecolor="#00742c"
     bordercolor="#000000"
     borderopacity="0.25"
     inkscape:showpageshadow="2"
     inkscape:pageopacity="0.0"
     inkscape:pagecheckerboard="0"
     inkscape:deskcolor="#d1d1d1"
     inkscape:document-units="px"
     showgrid="true"
     showguides="false"
     inkscape:zoom="0.39118749"
     inkscape:cx="485.7006"
     inkscape:cy="837.19446"
     inkscape:window-width="2560"
     inkscape:window-height="1351"
     inkscape:window-x="2391"
     inkscape:window-y="-9"
     inkscape:window-maximized="1"
     inkscape:current-layer="layer1"><inkscape:grid
       type="modular"
       id="grid1"
       units="px"
       originx="0"
       originy="0"
       spacingx="62"
       spacingy="62"
       empcolor="#0047cb"
       empopacity="0.10196078"
       color="#00a9fd"
       opacity="0.01960784"
       empspacing="0"
       marginx="0"
       marginy="0"
       gapx="2"
       gapy="2"
       enabled="true"
       visible="true" /><inkscape:grid
       type="modular"
       id="grid2"
       units="px"
       originx="0"
       originy="0"
       spacingx="32"
       spacingy="32"
       empcolor="#0047cb"
       empopacity="0.10196078"
       color="#0099e5"
       opacity="0.10196078"
       empspacing="0"
       marginx="0"
       marginy="0"
       gapx="32"
       gapy="32"
       enabled="true"
       visible="true" /></sodipodi:namedview><defs
     id="defs1"><filter
       style="color-interpolation-filters:sRGB;"
       inkscape:label="Drop Shadow"
       id="filter18"
       x="-0.17958634"
       y="-0.17881376"
       width="1.3589301"
       height="1.3576503"><feFlood
         result="flood"
         in="SourceGraphic"
         flood-opacity="0.501961"
         flood-color="rgb(0,0,0)"
         id="feFlood17" /><feGaussianBlur
         result="blur"
         in="SourceGraphic"
         stdDeviation="2.000000"
         id="feGaussianBlur17" /><feOffset
         result="offset"
         in="blur"
         dx="0.000000"
         dy="0.000000"
         id="feOffset17" /><feComposite
         result="comp1"
         operator="in"
         in="flood"
         in2="offset"
         id="feComposite17" /><feComposite
         result="comp2"
         operator="over"
         in="SourceGraphic"
         in2="comp1"
         id="feComposite18" /></filter></defs><g
     inkscape:groupmode="layer"
     id="layer1"
     inkscape:label="Icons"><g
       style="fill:none;stroke:currentColor;stroke-width:2;stroke-linecap:round;stroke-linejoin:round"
       id="g2"
       transform="matrix(2.5833333,0,0,2.5833333,1,1)"><path
         stroke="none"
         d="M 0,0 H 24 V 24 H 0 Z"
         fill="none"
         id="path1" /><path
         d="m 9,11 -4,4 4,4 M 5,15 h 11 a 4,4 0 0 0 0,-8 h -1"
         id="path2"
         style="stroke:#ffffff;stroke-opacity:1" /></g><g
       style="fill:none;stroke:currentColor;stroke-width:2;stroke-linecap:round;stroke-linejoin:round"
       id="g3"
       transform="matrix(2.5833333,0,0,2.5833333,65,1)"><path
         stroke="none"
         d="M 0,0 H 24 V 24 H 0 Z"
         fill="none"
         id="path1-8" /><path
         d="m 12,17.75 -6.172,3.245 1.179,-6.873 -5,-4.867 6.9,-1 3.086,-6.253 3.086,6.253 6.9,1 -5,4.867 1.179,6.873 z"
         id="path2-8"
         style="stroke:#ffffff;stroke-opacity:1" /></g><g
       style="fill:none;stroke:currentColor;stroke-width:2;stroke-linecap:round;stroke-linejoin:round"
       id="g4"
       transform="matrix(2.5833333,0,0,2.5833333,129,1)"><path
         stroke="none"
         d="M 0,0 H 24 V 24 H 0 Z"
         fill="none"
         id="path1-2" /><path
         d="m 4,8 h 4 v 4 H 4 Z"
         id="path2-4"
         style="stroke:#ffffff;stroke-opacity:1" /><path
         d="M 6,4 V 8"
         id="path3"
         style="stroke:#ffffff;stroke-opacity:1" /><path
         d="m 6,12 v 8"
         id="path4"
         style="stroke:#ffffff;stroke-opacity:1" /><path
         d="m 10,14 h 4 v 4 h -4 z"
         id="path5"
         style="stroke:#ffffff;stroke-opacity:1" /><path
         d="M 12,4 V 14"
         id="path6"
         style="stroke:#ffffff;stroke-opacity:1" /><path
         d="m 12,18 v 2"
         id="path7"
         style="stroke:#ffffff;stroke-opacity:1" /><path
         d="m 16,5 h 4 v 4 h -4 z"
         id="path8"
         style="stroke:#ffffff;stroke-opacity:1" /><path
         d="M 18,4 V 5"
         id="path9"
         style="stroke:#ffffff;stroke-opacity:1" /><path
         d="M 18,9 V 20"
         id="path10"
         inkscape:label="path10"
         style="stroke:#ffffff;stroke-opacity:1" /></g><g
       style="fill:none;stroke:currentColor;stroke-width:2;stroke-linecap:round;stroke-linejoin:round"
       id="g5"
       transform="matrix(2.5833333,0,0,2.5833333,193,1)"><path
         stroke="none"
         d="M 0,0 H 24 V 24 H 0 Z"
         fill="none"
         id="path1-5" /><path
         d="m 4,11.319 c 0,3.102 0.444,5.319 2.222,7.978 1.351,1.797 3.156,2.247 5.08,0.988 0.426,-0.268 0.97,-0.268 1.397,0 1.923,1.26 3.728,0.809 5.079,-0.988 C 19.556,16.637 20,14.421 20,11.32 20,8.659 18.01,6 15.556,6 c -1.267,0 -2.41,0.693 -3.22,1.44 a 0.5,0.5 0 0 1 -0.672,0 C 10.855,6.694 9.711,6 8.444,6 5.99,6 4,8.66 4,11.319"
         id="path2-5"
         style="stroke:#ffffff;stroke-opacity:1" /><path
         d="M 7,12 C 7,10.53 7.454,9.66 8.5,9"
         id="path3-1"
         style="stroke:#ffffff;stroke-opacity:1" /><path
         d="M 12,7 C 12,5.8 12.867,3 15,3"
         id="path4-7"
         style="stroke:#ffffff;stroke-opacity:1" /></g><g
       style="fill:none;stroke:currentColor;stroke-width:2;stroke-linecap:round;stroke-linejoin:round"
       id="g6"
       transform="matrix(2.5833333,0,0,2.5833333,257,1)"><path
         stroke="none"
         d="M 0,0 H 24 V 24 H 0 Z"
         fill="none"
         id="path1-1" /><path
         d="m 4.887,20 h 11.868 c 0.893,0 1.664,-0.665 1.847,-1.592 l 2.358,-12 C 21.172,5.327 20.518,4.268 19.498,4.042 A 1.784,1.784 0 0 0 19.113,4 H 7.245 C 6.352,4 5.581,4.665 5.398,5.592 l -2.358,12 c -0.212,1.081 0.442,2.14 1.462,2.366 C 4.629,19.986 4.758,20 4.887,20 Z"
         id="path2-1"
         style="stroke:#ffffff;stroke-opacity:1" /><path
         d="m 9,8 4,4 -6,4"
         id="path3-5"
         style="stroke:#ffffff;stroke-opacity:1" /><path
         d="m 12,16 h 3"
         id="path4-2"
         style="stroke:#ffffff;stroke-opacity:1" /></g><path
       d="m 331.55229,29.326864 a 20.631889,20.631889 0 1 1 1.2895,10.315945 m -1.2895,12.89493 v -12.89493 h 12.89493"
       id="path2-2"
       style="fill:none;stroke:#ffffff;stroke-width:5.15797;stroke-linecap:round;stroke-linejoin:round;stroke-opacity:1;filter:url(#filter18)" /></g></svg>
